<svg width="24" height="24" viewBox="0 0 24 24" fill="none" xmlns="http://www.w3.org/2000/svg">
<path d="M10.486 16.73C10.3547 16.7303 10.2247 16.7046 10.1034 16.6545C9.98204 16.6044 9.87181 16.5308 9.77899 16.438L5.53699 12.195C5.44141 12.1028 5.36516 11.9925 5.31266 11.8706C5.26017 11.7486 5.23249 11.6174 5.23125 11.4846C5.23 11.3518 5.25521 11.2201 5.3054 11.0972C5.3556 10.9743 5.42977 10.8626 5.52359 10.7686C5.61742 10.6747 5.72902 10.6003 5.85188 10.55C5.97474 10.4996 6.1064 10.4742 6.23918 10.4753C6.37195 10.4763 6.50319 10.5038 6.62523 10.5561C6.74727 10.6085 6.85767 10.6846 6.94999 10.78L10.485 14.315L16.85 7.952C17.0375 7.76436 17.2919 7.65889 17.5571 7.6588C17.8224 7.6587 18.0768 7.76399 18.2645 7.9515C18.4521 8.13901 18.5576 8.39338 18.5577 8.65865C18.5578 8.92392 18.4525 9.17836 18.265 9.366L11.193 16.438C11.1002 16.5308 10.9899 16.6044 10.8686 16.6545C10.7473 16.7046 10.6173 16.7303 10.486 16.73Z" fill="#2FAB73"/>
</svg>
